<svg width="91" height="24" viewBox="0 0 91 24" fill="none" xmlns="http://www.w3.org/2000/svg">
<path d="M9.1522 12C9.2642 12 9.3282 11.904 9.2642 11.792L6.9762 7.35997C8.2242 6.89597 9.0402 5.79197 9.0402 4.36797C9.0402 2.44797 7.5682 1.11997 5.5682 1.11997H1.3602C1.2642 1.11997 1.2002 1.18397 1.2002 1.27997V11.84C1.2002 11.936 1.2642 12 1.3602 12H2.9282C3.0242 12 3.0882 11.936 3.0882 11.84V7.69597C3.0882 7.63197 3.1202 7.59997 3.1842 7.59997H5.0562L7.1362 11.84C7.1842 11.952 7.2482 12 7.3762 12H9.1522ZM5.5042 5.90397H3.1842C3.1202 5.90397 3.0882 5.87197 3.0882 5.80797V2.91197C3.0882 2.84797 3.1202 2.81597 3.1842 2.81597H5.5042C6.4962 2.81597 7.1682 3.42397 7.1682 4.36797C7.1682 5.29597 6.4962 5.90397 5.5042 5.90397Z" fill="white"/>
<path d="M11.1064 11.84C11.1064 11.936 11.1704 12 11.2664 12H18.0824C18.1784 12 18.2424 11.936 18.2424 11.84V10.464C18.2424 10.368 18.1784 10.304 18.0824 10.304H13.0904C13.0264 10.304 12.9944 10.272 12.9944 10.208V7.45597C12.9944 7.39197 13.0264 7.35997 13.0904 7.35997H17.2984C17.3944 7.35997 17.4584 7.29597 17.4584 7.19997V5.82397C17.4584 5.72797 17.3944 5.66397 17.2984 5.66397H13.0904C13.0264 5.66397 12.9944 5.63197 12.9944 5.56797V2.91197C12.9944 2.84797 13.0264 2.81597 13.0904 2.81597H18.0824C18.1784 2.81597 18.2424 2.75197 18.2424 2.65597V1.27997C18.2424 1.18397 18.1784 1.11997 18.0824 1.11997H11.2664C11.1704 1.11997 11.1064 1.18397 11.1064 1.27997V11.84Z" fill="white"/>
<path d="M20.2314 11.84C20.2314 11.936 20.2954 12 20.3914 12H21.9594C22.0554 12 22.1194 11.936 22.1194 11.84V1.27997C22.1194 1.18397 22.0554 1.11997 21.9594 1.11997H20.3914C20.2954 1.11997 20.2314 1.18397 20.2314 1.27997V11.84Z" fill="white"/>
<path d="M24.5127 11.84C24.5127 11.936 24.5767 12 24.6727 12H26.0647C26.1607 12 26.2247 11.936 26.2247 11.84V4.35197H26.2887L30.7367 11.84C30.8007 11.952 30.8807 12 31.0087 12H32.4647C32.5607 12 32.6247 11.936 32.6247 11.84V1.27997C32.6247 1.18397 32.5607 1.11997 32.4647 1.11997H31.0727C30.9767 1.11997 30.9127 1.18397 30.9127 1.27997V8.78397H30.8487L26.4167 1.27997C26.3527 1.16797 26.2727 1.11997 26.1447 1.11997H24.6727C24.5767 1.11997 24.5127 1.18397 24.5127 1.27997V11.84Z" fill="white"/>
<path d="M35.0283 11.84C35.0283 11.936 35.0923 12 35.1883 12H42.0043C42.1003 12 42.1643 11.936 42.1643 11.84V10.464C42.1643 10.368 42.1003 10.304 42.0043 10.304H37.0123C36.9483 10.304 36.9163 10.272 36.9163 10.208V7.45597C36.9163 7.39197 36.9483 7.35997 37.0123 7.35997H41.2203C41.3163 7.35997 41.3803 7.29597 41.3803 7.19997V5.82397C41.3803 5.72797 41.3163 5.66397 41.2203 5.66397H37.0123C36.9483 5.66397 36.9163 5.63197 36.9163 5.56797V2.91197C36.9163 2.84797 36.9483 2.81597 37.0123 2.81597H42.0043C42.1003 2.81597 42.1643 2.75197 42.1643 2.65597V1.27997C42.1643 1.18397 42.1003 1.11997 42.0043 1.11997H35.1883C35.0923 1.11997 35.0283 1.18397 35.0283 1.27997V11.84Z" fill="white"/>
<path d="M52.1053 12C52.2173 12 52.2813 11.904 52.2173 11.792L49.9293 7.35997C51.1773 6.89597 51.9933 5.79197 51.9933 4.36797C51.9933 2.44797 50.5213 1.11997 48.5213 1.11997H44.3133C44.2173 1.11997 44.1533 1.18397 44.1533 1.27997V11.84C44.1533 11.936 44.2173 12 44.3133 12H45.8813C45.9773 12 46.0413 11.936 46.0413 11.84V7.69597C46.0413 7.63197 46.0733 7.59997 46.1373 7.59997H48.0093L50.0893 11.84C50.1373 11.952 50.2013 12 50.3293 12H52.1053ZM48.4573 5.90397H46.1373C46.0733 5.90397 46.0413 5.87197 46.0413 5.80797V2.91197C46.0413 2.84797 46.0733 2.81597 46.1373 2.81597H48.4573C49.4493 2.81597 50.1213 3.42397 50.1213 4.36797C50.1213 5.29597 49.4493 5.90397 48.4573 5.90397Z" fill="white"/>
<path d="M57.9967 12C58.0927 12 58.1567 11.936 58.1567 11.84V2.91197C58.1567 2.84797 58.1887 2.81597 58.2527 2.81597H61.1007C61.1967 2.81597 61.2607 2.75197 61.2607 2.65597V1.27997C61.2607 1.18397 61.1967 1.11997 61.1007 1.11997H53.3247C53.2287 1.11997 53.1647 1.18397 53.1647 1.27997V2.65597C53.1647 2.75197 53.2287 2.81597 53.3247 2.81597H56.1727C56.2367 2.81597 56.2687 2.84797 56.2687 2.91197V11.84C56.2687 11.936 56.3327 12 56.4287 12H57.9967Z" fill="white"/>
<path d="M66.2336 12.176C68.9376 12.176 70.3296 10.736 70.3296 8.79997C70.3296 6.92797 69.1776 5.93597 67.0816 5.64797L66.5056 5.56797C65.0336 5.35997 64.5056 4.84797 64.5056 4.09597C64.5056 3.24797 65.1136 2.63997 66.2176 2.63997C67.1296 2.63997 67.9456 2.91197 68.8256 3.48797C68.9056 3.53597 68.9856 3.51997 69.0496 3.43997L69.8176 2.25597C69.8816 2.15997 69.8656 2.09597 69.7856 2.03197C68.9216 1.37597 67.6256 0.94397 66.2656 0.94397C64.0256 0.94397 62.5856 2.25597 62.5856 4.22397C62.5856 6.03197 63.7696 7.03997 65.8656 7.32797L66.4416 7.40797C67.9456 7.61597 68.4256 8.12797 68.4256 8.91197C68.4256 9.82397 67.6736 10.48 66.3776 10.48C65.1616 10.48 64.1216 9.88797 63.4176 9.32797C63.3536 9.26397 63.2576 9.26397 63.1936 9.34397L62.2016 10.496C62.1376 10.576 62.1696 10.672 62.2336 10.736C63.0816 11.536 64.6336 12.176 66.2336 12.176Z" fill="white"/>
<path d="M72.2002 11.84C72.2002 11.936 72.2642 12 72.3602 12H79.1762C79.2722 12 79.3362 11.936 79.3362 11.84V10.464C79.3362 10.368 79.2722 10.304 79.1762 10.304H74.1842C74.1202 10.304 74.0882 10.272 74.0882 10.208V7.45597C74.0882 7.39197 74.1202 7.35997 74.1842 7.35997H78.3922C78.4882 7.35997 78.5522 7.29597 78.5522 7.19997V5.82397C78.5522 5.72797 78.4882 5.66397 78.3922 5.66397H74.1842C74.1202 5.66397 74.0882 5.63197 74.0882 5.56797V2.91197C74.0882 2.84797 74.1202 2.81597 74.1842 2.81597H79.1762C79.2722 2.81597 79.3362 2.75197 79.3362 2.65597V1.27997C79.3362 1.18397 79.2722 1.11997 79.1762 1.11997H72.3602C72.2642 1.11997 72.2002 1.18397 72.2002 1.27997V11.84Z" fill="white"/>
<path d="M81.3252 11.84C81.3252 11.936 81.3892 12 81.4852 12H82.8772C82.9732 12 83.0372 11.936 83.0372 11.84V4.35197H83.1012L87.5492 11.84C87.6132 11.952 87.6932 12 87.8212 12H89.2772C89.3732 12 89.4372 11.936 89.4372 11.84V1.27997C89.4372 1.18397 89.3732 1.11997 89.2772 1.11997H87.8852C87.7892 1.11997 87.7252 1.18397 87.7252 1.27997V8.78397H87.6612L83.2292 1.27997C83.1652 1.16797 83.0852 1.11997 82.9572 1.11997H81.4852C81.3892 1.11997 81.3252 1.18397 81.3252 1.27997V11.84Z" fill="white"/>
<path d="M0.600098 21.92C0.600098 21.968 0.632098 22 0.680098 22H1.3761C1.4241 22 1.4561 21.968 1.4561 21.92V18.176H1.4881L3.7121 21.92C3.7441 21.976 3.7841 22 3.8481 22H4.5761C4.6241 22 4.6561 21.968 4.6561 21.92V16.64C4.6561 16.592 4.6241 16.56 4.5761 16.56H3.8801C3.8321 16.56 3.8001 16.592 3.8001 16.64V20.392H3.7681L1.5521 16.64C1.5201 16.584 1.4801 16.56 1.4161 16.56H0.680098C0.632098 16.56 0.600098 16.592 0.600098 16.64V21.92Z" fill="white"/>
<path d="M5.85791 21.92C5.85791 21.968 5.88991 22 5.93791 22H9.34591C9.39391 22 9.42591 21.968 9.42591 21.92V21.232C9.42591 21.184 9.39391 21.152 9.34591 21.152H6.84991C6.81791 21.152 6.80191 21.136 6.80191 21.104V19.728C6.80191 19.696 6.81791 19.68 6.84991 19.68H8.95391C9.00191 19.68 9.03391 19.648 9.03391 19.6V18.912C9.03391 18.864 9.00191 18.832 8.95391 18.832H6.84991C6.81791 18.832 6.80191 18.816 6.80191 18.784V17.456C6.80191 17.424 6.81791 17.408 6.84991 17.408H9.34591C9.39391 17.408 9.42591 17.376 9.42591 17.328V16.64C9.42591 16.592 9.39391 16.56 9.34591 16.56H5.93791C5.88991 16.56 5.85791 16.592 5.85791 16.64V21.92Z" fill="white"/>
<path d="M14.8844 22C14.9324 22 14.9724 21.968 14.9804 21.92L16.3084 16.64C16.3164 16.592 16.3004 16.56 16.2444 16.56H15.5004C15.4524 16.56 15.4124 16.584 15.4044 16.64L14.5644 20.304H14.5484L13.5084 16.64C13.4924 16.592 13.4684 16.56 13.4124 16.56H12.8524C12.8044 16.56 12.7724 16.592 12.7564 16.64L11.7404 20.304H11.7244L10.8604 16.64C10.8524 16.592 10.8204 16.56 10.7644 16.56H10.0124C9.95641 16.56 9.94041 16.592 9.94841 16.64L11.2844 21.92C11.3004 21.968 11.3324 22 11.3804 22H11.9804C12.0284 22 12.0604 21.968 12.0764 21.92L13.1244 18.2H13.1404L14.1804 21.92C14.1964 21.968 14.2284 22 14.2764 22H14.8844Z" fill="white"/>
<path d="M18.772 21.92C18.772 21.968 18.804 22 18.852 22H22.26C22.308 22 22.34 21.968 22.34 21.92V21.232C22.34 21.184 22.308 21.152 22.26 21.152H19.764C19.732 21.152 19.716 21.136 19.716 21.104V19.728C19.716 19.696 19.732 19.68 19.764 19.68H21.868C21.916 19.68 21.948 19.648 21.948 19.6V18.912C21.948 18.864 21.916 18.832 21.868 18.832H19.764C19.732 18.832 19.716 18.816 19.716 18.784V17.456C19.716 17.424 19.732 17.408 19.764 17.408H22.26C22.308 17.408 22.34 17.376 22.34 17.328V16.64C22.34 16.592 22.308 16.56 22.26 16.56H18.852C18.804 16.56 18.772 16.592 18.772 16.64V21.92Z" fill="white"/>
<path d="M23.3345 21.92C23.3345 21.968 23.3665 22 23.4145 22H24.1105C24.1585 22 24.1905 21.968 24.1905 21.92V18.176H24.2225L26.4465 21.92C26.4785 21.976 26.5185 22 26.5825 22H27.3105C27.3585 22 27.3905 21.968 27.3905 21.92V16.64C27.3905 16.592 27.3585 16.56 27.3105 16.56H26.6145C26.5665 16.56 26.5345 16.592 26.5345 16.64V20.392H26.5025L24.2865 16.64C24.2545 16.584 24.2145 16.56 24.1505 16.56H23.4145C23.3665 16.56 23.3345 16.592 23.3345 16.64V21.92Z" fill="white"/>
<path d="M28.5923 21.92C28.5923 21.968 28.6243 22 28.6723 22H32.0803C32.1283 22 32.1603 21.968 32.1603 21.92V21.232C32.1603 21.184 32.1283 21.152 32.0803 21.152H29.5843C29.5523 21.152 29.5363 21.136 29.5363 21.104V19.728C29.5363 19.696 29.5523 19.68 29.5843 19.68H31.6883C31.7363 19.68 31.7683 19.648 31.7683 19.6V18.912C31.7683 18.864 31.7363 18.832 31.6883 18.832H29.5843C29.5523 18.832 29.5363 18.816 29.5363 18.784V17.456C29.5363 17.424 29.5523 17.408 29.5843 17.408H32.0803C32.1283 17.408 32.1603 17.376 32.1603 17.328V16.64C32.1603 16.592 32.1283 16.56 32.0803 16.56H28.6723C28.6243 16.56 28.5923 16.592 28.5923 16.64V21.92Z" fill="white"/>
<path d="M37.1308 22C37.1868 22 37.2188 21.952 37.1868 21.896L36.0428 19.68C36.6668 19.448 37.0748 18.896 37.0748 18.184C37.0748 17.224 36.3388 16.56 35.3388 16.56H33.2348C33.1868 16.56 33.1548 16.592 33.1548 16.64V21.92C33.1548 21.968 33.1868 22 33.2348 22H34.0188C34.0668 22 34.0988 21.968 34.0988 21.92V19.848C34.0988 19.816 34.1148 19.8 34.1468 19.8H35.0828L36.1228 21.92C36.1468 21.976 36.1788 22 36.2428 22H37.1308ZM35.3068 18.952H34.1468C34.1148 18.952 34.0988 18.936 34.0988 18.904V17.456C34.0988 17.424 34.1148 17.408 34.1468 17.408H35.3068C35.8028 17.408 36.1388 17.712 36.1388 18.184C36.1388 18.648 35.8028 18.952 35.3068 18.952Z" fill="white"/>
<path d="M38.0685 20.776C38.3485 21.64 39.0525 22.088 40.0125 22.088C40.9485 22.088 41.6685 21.6 41.9325 20.752C42.0205 20.48 42.0605 20.008 42.0605 19.56V19.088C42.0605 19.04 42.0285 19.008 41.9805 19.008H40.1805C40.1325 19.008 40.1005 19.04 40.1005 19.088V19.728C40.1005 19.776 40.1325 19.808 40.1805 19.808H41.0765C41.1085 19.808 41.1245 19.824 41.1245 19.856C41.1245 20.168 41.0925 20.392 41.0365 20.56C40.8925 21 40.4845 21.24 40.0045 21.24C39.4525 21.24 39.1325 20.968 38.9805 20.528C38.9165 20.328 38.8845 20.048 38.8845 19.28C38.8845 18.504 38.9165 18.232 38.9805 18.032C39.1325 17.592 39.4525 17.32 40.0045 17.32C40.5325 17.32 40.8605 17.56 41.1005 17.992C41.1165 18.024 41.1565 18.048 41.2045 18.032L41.8765 17.736C41.9165 17.712 41.9245 17.664 41.9085 17.624C41.6845 17.016 41.0285 16.472 40.0125 16.472C39.0525 16.472 38.3485 16.92 38.0685 17.784C37.9565 18.12 37.9245 18.424 37.9245 19.28C37.9245 20.136 37.9565 20.44 38.0685 20.776Z" fill="white"/>
<path d="M44.9736 22C45.0216 22 45.0536 21.968 45.0536 21.92V19.776L46.6296 16.64C46.6456 16.6 46.6296 16.56 46.5656 16.56H45.7896C45.7336 16.56 45.7016 16.584 45.6776 16.64L44.6056 18.752H44.5816L43.5176 16.64C43.4936 16.584 43.4536 16.56 43.4056 16.56H42.5976C42.5416 16.56 42.5176 16.6 42.5336 16.64L44.1096 19.776V21.92C44.1096 21.968 44.1416 22 44.1896 22H44.9736Z" fill="white"/>
</svg>
